<?xml version="1.0" encoding="UTF-8" standalone="no"?><!DOCTYPE svg PUBLIC "-//W3C//DTD SVG 1.1//EN" "http://www.w3.org/Graphics/SVG/1.1/DTD/svg11.dtd"><svg width="100%" height="100%" viewBox="0 0 120 95" version="1.1" xmlns="http://www.w3.org/2000/svg" xmlns:xlink="http://www.w3.org/1999/xlink" xml:space="preserve" xmlns:serif="http://www.serif.com/" style="fill-rule:evenodd;clip-rule:evenodd;stroke-linejoin:round;stroke-miterlimit:2;"><rect id="Artboard2" x="0" y="0" width="120" height="95" style="fill:none;"/><g id="Artboard1"><g><g><path d="M30.791,51.07c-1.591,-2.114 -1.591,-5.026 0,-7.141l31.278,-41.562c1.122,-1.491 2.879,-2.367 4.744,-2.367l20.781,0c1.224,0 1.922,1.399 1.186,2.377l-33.957,45.123l33.957,45.123c0.736,0.978 0.038,2.377 -1.186,2.377l-20.781,0c-1.865,0 -3.622,-0.877 -4.744,-2.367l-31.278,-41.562Z" style="fill:#cc3e49;fill-rule:nonzero;"/><path d="M41.464,65.253l20.605,27.38c1.122,1.491 2.879,2.367 4.744,2.367l20.781,0c1.224,0 1.922,-1.399 1.186,-2.377l-33.957,-45.123l-13.359,17.753Z" style="fill:url(#_Linear1);"/><path d="M47.142,76.586c-1.122,-1.491 -2.879,-2.367 -4.744,-2.367l-21.598,0l0,20.781l37.224,0c1.225,0 1.922,-1.399 1.186,-2.377l-12.068,-16.037Z" style="fill:url(#_Linear2);fill-rule:nonzero;"/><path d="M1.758,75.958c-1.113,-1.113 -1.739,-2.624 -1.739,-4.198l0,-50.615c0,-1.575 0.625,-3.085 1.739,-4.198l16.508,-16.508c0.935,-0.935 2.534,-0.273 2.534,1.05l0,93.513l-19.042,-19.042Z" style="fill:#414242;fill-rule:nonzero;"/></g></g></g><defs><linearGradient id="_Linear1" x1="0" y1="0" x2="1" y2="0" gradientUnits="userSpaceOnUse" gradientTransform="matrix(-31.469431,-38.57,38.570003,-31.469429,79.435555,95)"><stop offset="0" style="stop-color:#ca4147;stop-opacity:1"/><stop offset="0.52" style="stop-color:#ca4147;stop-opacity:1"/><stop offset="1" style="stop-color:#a6414b;stop-opacity:1"/></linearGradient><linearGradient id="_Linear2" x1="0" y1="0" x2="1" y2="0" gradientUnits="userSpaceOnUse" gradientTransform="matrix(-37.640523,0,-0,-37.64052,58.440553,84.056)"><stop offset="0" style="stop-color:#414242;stop-opacity:1"/><stop offset="1" style="stop-color:#696a6a;stop-opacity:1"/></linearGradient></defs></svg>